{"title":"American Horror Story S05 Hotel 720p BluRay HEVC 2CH x265","uid":15873076,"size":5331208999,"categoryP":"video","categoryS":"hd___tv_shows","magnet":"?xt=urn:btih:f8b7efa22e47c187b6b5c2e93b316d12964dbfc2&amp;dn=American+Horror+Story+S05+Hotel+720p+BluRay+HEVC+2CH+x265&amp;tr=udp%3A%2F%2Ftracker.leechers-paradise.org%3A6969&amp;tr=udp%3A%2F%2Fzer0day.ch%3A1337&amp;tr=udp%3A%2F%2Fopen.demonii.com%3A1337&amp;tr=udp%3A%2F%2Ftracker.coppersurfer.tk%3A6969&amp;tr=udp%3A%2F%2Fexodus.desync.com%3A6969","seeders":18,"leechers":18,"uploader":"nayhtut","files":24,"time":1474459587,"description":"[Screenshots Gallery Link]\r\n\r\n[http://postimg.org/gallery/1qi4dc3iw]\r\n\r\nSource: American Horror Story S05 720p BluRay x264-DEMAND (28.89 GB)\r\n\r\n\r\nContains: American Horror Story Season Five &quot;Hotel&quot;- Episode 01 to 12\r\n\r\nFormat                                   : Matroska\r\nFormat version                           : Version 4 / Version 2\r\nFile size                                : 4.96 GiB\r\nDuration                                 : Various\r\nOverall bit rate                         : 1 144 Kbps\r\nWriting application                      : Lavf57.25.100\r\nWriting library                          : Lavf57.25.100\r\n\r\nVideo\r\n\r\nID                                       : 1\r\nFormat                                   : V_MPEGH/ISO/HEVC\r\nCodec ID                                 : V_MPEGH/ISO/HEVC\r\nDuration                                 : 1h 2mn\r\nBit rate                                 : 801 Kbps\r\nWidth                                    : 1 280 pixels\r\nHeight                                   : 720 pixels\r\nDisplay aspect ratio                     : 16:9\r\nFrame rate                               : 25.000 fps\r\nBits/(Pixel*Frame)                       : 0.035\r\nStream size                              : 358 MiB (70%)\r\nWriting library                          : Lavc57.48.101 libx265\r\nLanguage                                 : English\r\nDefault                                  : Yes\r\nForced                                   : No\r\nDURATION                                 : 01:02:30.771000000\r\n\r\nAudio\r\n\r\nID                                       : 2\r\nFormat                                   : AC-3\r\nFormat/Info                              : Audio Coding 3\r\nMode extension                           : CM (complete main)\r\nFormat settings, Endianness              : Big\r\nCodec ID                                 : A_AC3\r\nDuration                                 : 1h 2mn\r\nBit rate mode                            : Constant\r\nBit rate                                 : 320 Kbps\r\nChannel(s)                               : 2 channels\r\nChannel positions                        : Front: L R\r\nSampling rate                            : 48.0 KHz\r\nBit depth                                : 16 bits\r\nCompression mode                         : Lossy\r\nStream size                              : 143 MiB (28%)\r\nWriting library                          : Lavc57.24.102 ac3\r\nLanguage                                 : English\r\nDefault                                  : Yes\r\nForced                                   : No\r\nDURATION                                 : 01:02:30.879000000\r\n\r\nMenu\r\n\r\n00:00:00.000                             : :00:00:00.000\r\n00:08:24.504                             : :00:08:24.504\r\n00:26:20.829                             : :00:26:20.829\r\n00:39:26.322                             : :00:39:26.322\r\n00:43:14.592                             : :00:43:14.592\r\n00:53:48.058                             : :00:53:48.058\r\n01:01:51.708                             : :01:01:51.708\r\n00:53:26.912                             : :00:53:26.912","torrent":{"xt":"urn:btih:f8b7efa22e47c187b6b5c2e93b316d12964dbfc2","amp;dn":"American+Horror+Story+S05+Hotel+720p+BluRay+HEVC+2CH+x265","amp;tr":["udp%3A%2F%2Ftracker.leechers-paradise.org%3A6969","udp%3A%2F%2Fzer0day.ch%3A1337","udp%3A%2F%2Fopen.demonii.com%3A1337","udp%3A%2F%2Ftracker.coppersurfer.tk%3A6969","udp%3A%2F%2Fexodus.desync.com%3A6969"],"infoHash":"f8b7efa22e47c187b6b5c2e93b316d12964dbfc2","infoHashBuffer":{"type":"Buffer","data":[248,183,239,162,46,71,193,135,182,181,194,233,59,49,109,18,150,77,191,194]},"announce":[],"urlList":[]}}